<svg width="22" height="20" viewBox="0 0 22 20" fill="none" xmlns="http://www.w3.org/2000/svg">
<path d="M20 20C19.8686 20.0003 19.7385 19.9745 19.6172 19.9243C19.4958 19.874 19.3856 19.8001 19.293 19.707L12.665 13.079C12.0019 13.4379 11.2406 13.573 10.4945 13.4643C9.74845 13.3556 9.0574 13.0089 8.52425 12.4757C7.99111 11.9426 7.64439 11.2515 7.53569 10.5054C7.42699 9.75934 7.56213 8.99809 7.921 8.33499L1.292 1.70699C1.10449 1.51935 0.999204 1.26491 0.999297 0.999635C0.999391 0.734365 1.10486 0.479997 1.2925 0.292489C1.48014 0.104981 1.73458 -0.000307327 1.99985 -0.00021356C2.26512 -0.000119794 2.51949 0.105348 2.707 0.292989L20.707 18.293C20.8468 18.4328 20.942 18.611 20.9806 18.805C21.0192 18.9989 20.9993 19.1999 20.9237 19.3826C20.848 19.5653 20.7199 19.7215 20.5555 19.8314C20.391 19.9413 20.1978 19.9999 20 20ZM9.5 9.91599C9.5 9.94399 9.5 9.97199 9.5 9.99999C9.5 10.3978 9.65804 10.7793 9.93934 11.0606C10.2206 11.342 10.6022 11.5 11 11.5H11.084L9.5 9.91599ZM11 17C8.13005 16.8638 5.40001 15.7201 3.29 13.77C2.4893 13.104 1.738 12.3808 1.042 11.606C0.829 11.369 0.622 11.128 0.426 10.888C0.355 10.8 0.3 10.73 0.262 10.681L0.234 10.644L0.217 10.622L0.2 10.607V10.602C0.2 10.602 0.2 10.602 0.906 10.07L0.2 10.6C0.0701779 10.4269 0 10.2164 0 9.99999C0 9.78362 0.0701779 9.57308 0.2 9.39999C0.2 9.39999 0.267 9.45099 1 9.99999L0.978 10.018L1 9.99999L0.2 9.39999V9.39399L0.213 9.37699L0.247 9.33399L0.262 9.31999C0.3 9.27299 0.35 9.20699 0.427 9.11199C0.627 8.87199 0.827 8.63099 1.043 8.39399C1.73868 7.61926 2.48965 6.89603 3.29 6.22999C3.39117 6.1459 3.50794 6.0826 3.63362 6.04372C3.7593 6.00484 3.89141 5.99114 4.02239 6.0034C4.15337 6.01566 4.28065 6.05365 4.39692 6.11518C4.5132 6.17671 4.61619 6.26058 4.7 6.36199C4.78372 6.46317 4.84669 6.57985 4.88532 6.70537C4.92395 6.83089 4.93747 6.96279 4.92512 7.09354C4.91277 7.22428 4.87479 7.35132 4.81334 7.46738C4.7519 7.58345 4.66819 7.68627 4.567 7.76999C3.84184 8.37465 3.16078 9.03032 2.529 9.73199C2.442 9.83199 2.362 9.91999 2.292 9.99999C2.375 10.1 2.452 10.184 2.529 10.269C3.1611 10.97 3.84214 11.6253 4.567 12.23C6.092 13.494 8.447 15 11 15C11.5929 14.9973 12.1833 14.9221 12.758 14.776C13.0135 14.7168 13.282 14.7602 13.5057 14.8971C13.7294 15.0339 13.8904 15.2532 13.954 15.5076C14.0176 15.762 13.9787 16.0312 13.8457 16.2573C13.7127 16.4833 13.4963 16.648 13.243 16.716C12.5097 16.9018 11.7564 16.9971 11 17ZM18.071 14C17.8653 14 17.6645 13.9365 17.4962 13.8182C17.3278 13.7 17.2001 13.5326 17.1303 13.3391C17.0605 13.1455 17.0522 12.9352 17.1063 12.7367C17.1605 12.5382 17.2746 12.3613 17.433 12.23C18.1588 11.6264 18.8399 10.971 19.471 10.269C19.558 10.169 19.637 10.082 19.708 9.99999C19.638 9.91799 19.56 9.82999 19.471 9.73199C18.8394 9.03018 18.1583 8.3745 17.433 7.76999C15.909 6.50599 13.555 4.99999 11 4.99999C10.4122 5.00226 9.82691 5.07614 9.257 5.21999C8.99961 5.28373 8.72744 5.24264 8.50034 5.10574C8.27325 4.96885 8.10982 4.74736 8.046 4.48999C7.98225 4.2326 8.02335 3.96043 8.16024 3.73333C8.29714 3.50624 8.51863 3.34281 8.776 3.27899C9.50332 3.09638 10.2501 3.00269 11 2.99999C14.152 2.99999 16.932 4.75699 18.709 6.22999C19.5097 6.89599 20.261 7.61922 20.957 8.39399C21.238 8.70599 21.447 8.95699 21.573 9.11199C21.65 9.21199 21.702 9.27399 21.738 9.31999L21.769 9.35899L21.783 9.37699L21.796 9.39399C21.796 9.39399 21.762 9.42499 21.009 9.98599L21.8 9.39999C21.9289 9.57347 21.9985 9.78386 21.9985 9.99999C21.9985 10.2161 21.9289 10.4265 21.8 10.6L21.794 10.608L21.781 10.624L21.736 10.682C21.698 10.731 21.642 10.801 21.571 10.889C21.445 11.044 21.236 11.295 20.955 11.607C20.259 12.3818 19.5077 13.105 18.707 13.771C18.528 13.9188 18.3032 13.9998 18.071 14Z" fill="#1F1F39"/>
<path d="M14.6 2.79999L7.39999 9.99999L14.6 17.2" stroke="#1F1F39" stroke-width="2" stroke-linecap="round" stroke-linejoin="round"/>
</svg>
