<svg width="14" height="14" viewBox="0 0 14 14" fill="none" xmlns="http://www.w3.org/2000/svg">
<path d="M2 0.586004L7 5.586L12 0.586004C12.0923 0.490494 12.2026 0.414312 12.3246 0.361903C12.4466 0.309494 12.5778 0.281908 12.7106 0.280754C12.8434 0.2796 12.9751 0.304902 13.098 0.355182C13.2209 0.405463 13.3325 0.479716 13.4264 0.573609C13.5203 0.667502 13.5945 0.779154 13.6448 0.90205C13.6951 1.02495 13.7204 1.15663 13.7193 1.28941C13.7181 1.42218 13.6905 1.5534 13.6381 1.67541C13.5857 1.79741 13.5095 1.90776 13.414 2L8.414 7L13.414 12C13.5095 12.0923 13.5857 12.2026 13.6381 12.3246C13.6905 12.4466 13.7181 12.5778 13.7193 12.7106C13.7204 12.8434 13.6951 12.9751 13.6448 13.098C13.5945 13.2209 13.5203 13.3325 13.4264 13.4264C13.3325 13.5203 13.2209 13.5945 13.098 13.6448C12.9751 13.6951 12.8434 13.7204 12.7106 13.7193C12.5778 13.7181 12.4466 13.6905 12.3246 13.6381C12.2026 13.5857 12.0923 13.5095 12 13.414L7 8.414L2 13.414C1.90776 13.5095 1.79741 13.5857 1.67541 13.6381C1.5534 13.6905 1.42218 13.7181 1.28941 13.7193C1.15663 13.7204 1.02495 13.6951 0.90205 13.6448C0.779154 13.5945 0.667502 13.5203 0.573609 13.4264C0.479716 13.3325 0.405463 13.2209 0.355182 13.098C0.304902 12.9751 0.2796 12.8434 0.280754 12.7106C0.281908 12.5778 0.309494 12.4466 0.361903 12.3246C0.414312 12.2026 0.490494 12.0923 0.586004 12L5.586 7L0.586004 2C0.403846 1.8114 0.303052 1.5588 0.30533 1.2966C0.307609 1.03441 0.412777 0.783594 0.598186 0.598186C0.783594 0.412777 1.03441 0.307609 1.2966 0.30533C1.5588 0.303052 1.8114 0.403846 2 0.586004Z" fill="#1F1F39"/>
</svg>
