<svg width="34" height="34" viewBox="0 0 34 34" fill="none" xmlns="http://www.w3.org/2000/svg">
<path d="M33.011 13.909H17V20.485H26.149C25.9598 21.5251 25.5617 22.5161 24.9787 23.398C24.3956 24.2799 23.6399 25.0344 22.757 25.616V29.881H28.251C29.9247 28.269 31.2409 26.3232 32.1141 24.1698C32.9874 22.0164 33.3982 19.7034 33.32 17.381C33.3207 16.2168 33.2173 15.0548 33.011 13.909V13.909Z" fill="#4285F4"/>
<path d="M28.251 29.881L22.757 25.616C21.0428 26.7191 19.0379 27.2844 17 27.239C14.8806 27.2126 12.8228 26.5221 11.1164 25.2647C9.41003 24.0074 8.141 22.2465 7.48798 20.23H1.80798V24.63C3.22212 27.4471 5.3919 29.8154 8.07477 31.4701C10.7576 33.1248 13.8479 34.0008 17 34C21.1384 34.1122 25.1632 32.6387 28.251 29.881Z" fill="#34A853"/>
<path d="M6.95497 17.001C6.95737 15.901 7.13735 14.8086 7.48797 13.766V9.366H1.80797C0.618942 11.7353 -0.000244141 14.3496 -0.000244141 17.0005C-0.000244141 19.6514 0.618942 22.2657 1.80797 24.635L7.48797 20.235C7.13746 19.1927 6.95748 18.1007 6.95497 17.001Z" fill="#FBBC05"/>
<path d="M23.498 9.3L28.374 4.424C25.2964 1.53552 21.2204 -0.0498707 17 -2.66405e-06C13.8484 -0.00123862 10.7585 0.873948 8.07571 2.52775C5.39289 4.18156 3.22281 6.54882 1.80798 9.365L7.48798 13.765C8.141 11.7485 9.41003 9.98761 11.1164 8.73026C12.8228 7.4729 14.8806 6.7824 17 6.756C19.4163 6.71603 21.7511 7.63008 23.498 9.3Z" fill="#EA4335"/>
</svg>
