<svg width="38" height="45" viewBox="0 0 38 45" fill="none" xmlns="http://www.w3.org/2000/svg">
<path d="M32.851 0.462997H5.677C2.91558 0.462997 0.677002 2.70157 0.677002 5.463V39.562C0.677002 42.3234 2.91558 44.562 5.677 44.562H32.851C35.6124 44.562 37.851 42.3234 37.851 39.562V5.463C37.851 2.70157 35.6124 0.462997 32.851 0.462997Z" fill="white"/>
<path d="M29.544 31.173H8.98401V33.417H29.544V31.173Z" fill="#63926C"/>
<path d="M25.976 35.968H12.553V38.212H25.976V35.968Z" fill="#8FAC94"/>
<path d="M19.264 25.966C24.4356 25.966 28.628 21.7736 28.628 16.602C28.628 11.4304 24.4356 7.238 19.264 7.238C14.0924 7.238 9.90002 11.4304 9.90002 16.602C9.90002 21.7736 14.0924 25.966 19.264 25.966Z" fill="#C2E3DF"/>
<path d="M18.191 17.471L22.391 13.301L23.602 14.562L18.191 19.901L14.926 16.584L16.079 15.413L18.191 17.471Z" fill="#63926C"/>
</svg>
