<svg width="22" height="22" viewBox="0 0 22 22" fill="none" xmlns="http://www.w3.org/2000/svg">
<path d="M12.2 2.025L19.2 7.275C19.4484 7.46129 19.65 7.70286 19.7889 7.98057C19.9277 8.25828 20 8.56451 20 8.875V18.375C20 18.9054 19.7893 19.4141 19.4142 19.7892C19.0391 20.1643 18.5304 20.375 18 20.375H4C3.46957 20.375 2.96086 20.1643 2.58579 19.7892C2.21071 19.4141 2 18.9054 2 18.375V8.875C2 8.56451 2.07229 8.25828 2.21115 7.98057C2.35 7.70286 2.55161 7.46129 2.8 7.275L9.8 2.025C10.1462 1.76536 10.5673 1.625 11 1.625C11.4327 1.625 11.8538 1.76536 12.2 2.025Z" fill="#3D5CFF"/>
</svg>
